<svg id="Layer_1" data-name="Layer 1" xmlns="http://www.w3.org/2000/svg" viewBox="0 0 246.48 63">
  <title>logo005</title>
  <g>
    <path d="M75.48,20.42h2.77V31.34H92.43V20.42h2.77V45H92.43V33.94H78.25V45H75.48Z" fill="#8a9299"/>
    <path d="M107.6,43.07a7.51,7.51,0,0,0,5.72-2.56L115,42a9.37,9.37,0,0,1-7.48,3.41c-5,0-9.06-3.83-9.06-9.48,0-5.27,3.69-9.48,8.71-9.48,5.37,0,8.46,4.28,8.46,9.62,0,.25,0,.53,0,.95h-14.4A6.34,6.34,0,0,0,107.6,43.07Zm5.3-8.22c-.32-3.3-2.21-6.11-5.79-6.11-3.12,0-5.51,2.6-5.9,6.11Z" fill="#8a9299"/>
    <path d="M117.6,39.73v-.07c0-3.9,3.16-5.93,7.76-5.93a19,19,0,0,1,5.55.77v-.56c0-3.23-2-4.92-5.37-4.92a12.63,12.63,0,0,0-5.51,1.3l-.81-2.21a14.88,14.88,0,0,1,6.6-1.54,8.05,8.05,0,0,1,5.86,2,7.18,7.18,0,0,1,1.9,5.34V45h-2.67V42.3a8,8,0,0,1-6.53,3.09C121,45.39,117.6,43.46,117.6,39.73Zm13.34-1.4V36.64a18.66,18.66,0,0,0-5.3-.77c-3.37,0-5.3,1.47-5.3,3.65v.07c0,2.28,2.11,3.62,4.56,3.62C128.24,43.21,130.95,41.21,130.95,38.33Z" fill="#8a9299"/>
    <path d="M138.14,19.37h2.7V45h-2.7Z" fill="#8a9299"/>
    <path d="M147.38,40.19v-11h-2.53V26.85h2.53V21.37h2.7v5.48h5.76v2.39h-5.76v10.6c0,2.21,1.23,3,3.05,3a5.69,5.69,0,0,0,2.63-.63v2.32a6.8,6.8,0,0,1-3.27.77C149.59,45.32,147.38,43.88,147.38,40.19Z" fill="#8a9299"/>
    <path d="M159.21,19.37h2.7V30a6.87,6.87,0,0,1,6.21-3.55c4.39,0,7,2.95,7,7.27V45h-2.7V34.4c0-3.37-1.83-5.48-5-5.48a5.34,5.34,0,0,0-5.44,5.69V45h-2.7Z" fill="#8a9299"/>
    <path d="M178.09,32.78v-.07A12.38,12.38,0,0,1,190.52,20a12.79,12.79,0,0,1,9.58,3.9l-1.9,2a10.68,10.68,0,0,0-7.72-3.37C185,22.56,181,27,181,32.64v.07c0,5.69,4.11,10.15,9.51,10.15,3.37,0,5.58-1.3,7.94-3.55l1.83,1.79a12.8,12.8,0,0,1-9.83,4.32C183.33,45.42,178.09,39.84,178.09,32.78Z" fill="#39b54a"/>
    <path d="M201.05,36v-.07A9.46,9.46,0,0,1,220,35.87v.07a9.42,9.42,0,0,1-9.51,9.48A9.3,9.3,0,0,1,201.05,36Zm16.15,0v-.07a6.87,6.87,0,0,0-6.74-7.09,6.7,6.7,0,0,0-6.64,7v.07A6.81,6.81,0,0,0,210.53,43,6.7,6.7,0,0,0,217.21,36Z" fill="#39b54a"/>
    <path d="M220.54,42.68l1.37-1.93a10.61,10.61,0,0,0,6.29,2.32c2.18,0,3.76-1.12,3.76-2.88v-.07c0-1.83-2.14-2.53-4.53-3.19-2.84-.81-6-1.79-6-5.13v-.07c0-3.12,2.6-5.2,6.18-5.2a12.41,12.41,0,0,1,6.53,2l-1.23,2a10.26,10.26,0,0,0-5.37-1.76c-2.14,0-3.51,1.12-3.51,2.63v.07c0,1.72,2.25,2.39,4.67,3.13,2.81.84,5.83,1.93,5.83,5.2v.07c0,3.44-2.84,5.44-6.46,5.44A12.48,12.48,0,0,1,220.54,42.68Z" fill="#39b54a"/>
    <path d="M238,40.19v-11h-2.53V26.85H238V21.37h2.7v5.48h5.76v2.39h-5.76v10.6c0,2.21,1.23,3,3.05,3a5.69,5.69,0,0,0,2.63-.63v2.32a6.8,6.8,0,0,1-3.27.77C240.23,45.32,238,43.88,238,40.19Z" fill="#39b54a"/>
    <polygon points="36 36 36 45 27 45 18 45 18 54 18 63 27 63 27 54 36 54 36 63 45 63 45 54 45 45 45 36 36 36" fill="#39b54a"/>
    <polygon points="18 36 18 27 18 18 9 18 0 18 0 27 9 27 9 36 0 36 0 45 9 45 18 45 27 45 27 36 18 36" fill="#8a9299"/>
    <polygon points="63 27 63 18 54 18 45 18 36 18 36 27 45 27 45 36 45 45 54 45 63 45 63 36 54 36 54 27 63 27" fill="#8a9299"/>
    <polygon points="36 0 36 9 27 9 27 0 18 0 18 9 18 18 18 27 27 27 27 18 36 18 45 18 45 9 45 0 36 0" fill="#39b54a"/>
  </g>
</svg>
