<svg data-name="Layer 1" xmlns="http://www.w3.org/2000/svg" viewBox="0 0 246.48 63"><title>logo005</title><path d="M75.48 20.42h2.77v10.92h14.18V20.42h2.77V45h-2.77V33.94H78.25V45h-2.77zM107.6 43.07a7.51 7.51 0 0 0 5.72-2.56L115 42a9.37 9.37 0 0 1-7.48 3.41c-5 0-9.06-3.83-9.06-9.48 0-5.27 3.69-9.48 8.71-9.48 5.37 0 8.46 4.28 8.46 9.62v.95h-14.4a6.34 6.34 0 0 0 6.37 6.05zm5.3-8.22c-.32-3.3-2.21-6.11-5.79-6.11-3.12 0-5.51 2.6-5.9 6.11zM117.6 39.73v-.07c0-3.9 3.16-5.93 7.76-5.93a19 19 0 0 1 5.55.77v-.56c0-3.23-2-4.92-5.37-4.92a12.63 12.63 0 0 0-5.51 1.3l-.81-2.21a14.88 14.88 0 0 1 6.6-1.54 8.05 8.05 0 0 1 5.86 2 7.18 7.18 0 0 1 1.9 5.34V45h-2.67v-2.7a8 8 0 0 1-6.53 3.09c-3.38 0-6.78-1.93-6.78-5.66zm13.34-1.4v-1.69a18.66 18.66 0 0 0-5.3-.77c-3.37 0-5.3 1.47-5.3 3.65v.07c0 2.28 2.11 3.62 4.56 3.62 3.34 0 6.05-2 6.05-4.88zM138.14 19.37h2.7V45h-2.7zM147.38 40.19v-11h-2.53v-2.34h2.53v-5.48h2.7v5.48h5.76v2.39h-5.76v10.6c0 2.21 1.23 3 3.05 3a5.69 5.69 0 0 0 2.63-.63v2.32a6.8 6.8 0 0 1-3.27.77c-2.9.02-5.11-1.42-5.11-5.11zM159.21 19.37h2.7V30a6.87 6.87 0 0 1 6.21-3.55c4.39 0 7 2.95 7 7.27V45h-2.7V34.4c0-3.37-1.83-5.48-5-5.48a5.34 5.34 0 0 0-5.44 5.69V45h-2.7z" fill="#8a9299"/><path d="M178.09 32.78v-.07A12.38 12.38 0 0 1 190.52 20a12.79 12.79 0 0 1 9.58 3.9l-1.9 2a10.68 10.68 0 0 0-7.72-3.37C185 22.56 181 27 181 32.64v.07c0 5.69 4.11 10.15 9.51 10.15 3.37 0 5.58-1.3 7.94-3.55l1.83 1.79a12.8 12.8 0 0 1-9.83 4.32c-7.12 0-12.36-5.58-12.36-12.64zM201.05 36v-.07a9.46 9.46 0 0 1 18.95-.06v.07a9.42 9.42 0 0 1-9.51 9.48 9.3 9.3 0 0 1-9.44-9.42zm16.15 0v-.07a6.87 6.87 0 0 0-6.74-7.09 6.7 6.7 0 0 0-6.64 7v.07a6.81 6.81 0 0 0 6.71 7.09 6.7 6.7 0 0 0 6.68-7zM220.54 42.68l1.37-1.93a10.61 10.61 0 0 0 6.29 2.32c2.18 0 3.76-1.12 3.76-2.88v-.07c0-1.83-2.14-2.53-4.53-3.19-2.84-.81-6-1.79-6-5.13v-.07c0-3.12 2.6-5.2 6.18-5.2a12.41 12.41 0 0 1 6.53 2l-1.23 2a10.26 10.26 0 0 0-5.37-1.76c-2.14 0-3.51 1.12-3.51 2.63v.07c0 1.72 2.25 2.39 4.67 3.13 2.81.84 5.83 1.93 5.83 5.2v.07c0 3.44-2.84 5.44-6.46 5.44a12.48 12.48 0 0 1-7.53-2.63zM238 40.19v-11h-2.53v-2.34H238v-5.48h2.7v5.48h5.76v2.39h-5.76v10.6c0 2.21 1.23 3 3.05 3a5.69 5.69 0 0 0 2.63-.63v2.32a6.8 6.8 0 0 1-3.27.77c-2.88.02-5.11-1.42-5.11-5.11zM36 36v9H18v18h9v-9h9v9h9V36h-9" fill="#39b54a"/><path fill="#8a9299" d="M18 36V18H0v9h9v9H0v9h27v-9h-9M63 27v-9H36v9h9v18h18v-9h-9v-9h9"/><path fill="#39b54a" d="M36 0v9h-9V0h-9v27h9v-9h18V0h-9"/></svg>